<svg width="72" height="71" viewBox="0 0 72 71" fill="none" xmlns="http://www.w3.org/2000/svg">
<path d="M64.6851 68.2297C66.8015 67.2044 66.8015 67.2044 67.545 66.1869C67.2393 64.0738 65.8595 62.388 64.7106 60.6459C64.4934 60.2933 64.2761 59.9407 64.0523 59.5774C63.8277 59.2385 63.6031 58.8996 63.3716 58.5504C63.1731 58.242 62.9746 57.9336 62.7701 57.6159C61.7348 56.7111 61.361 56.6717 60.057 56.421C56.5606 55.4715 54.2443 52.4175 51.7995 49.9036C51.2381 49.3368 50.676 48.7707 50.1133 48.2051C48.6413 46.7223 47.1782 45.2311 45.7167 43.7379C44.221 42.2128 42.717 40.6958 41.2137 39.1782C38.2707 36.2046 35.3369 33.2221 32.4089 30.2337C32.8211 29.3989 33.2357 28.5833 33.7112 27.7824C34.122 26.7713 34.0355 26.3331 33.6346 25.331C32.8175 24.5139 32.8175 24.5139 31.3109 24.2075C29.0252 23.6682 27.4553 22.4222 26.1768 20.4586C25.5156 19.202 25.0796 18.1103 24.8186 16.7041C24.2096 14.5773 22.6707 13.2263 21.1448 11.6954C20.8363 11.3811 20.5279 11.0667 20.21 10.7429C19.5581 10.0824 18.9034 9.42466 18.2462 8.76943C17.2429 7.76468 16.2557 6.74565 15.2686 5.72499C14.6322 5.08409 13.995 4.44409 13.3567 3.80508C13.0633 3.49916 12.77 3.19324 12.4677 2.87804C10.4189 0.874878 10.4189 0.87487 9.03193 0.709305C5.59431 1.08685 3.48447 3.39879 1.41111 5.958C0.689359 7.5039 0.364905 8.9126 0.541329 10.6229C1.29627 11.9738 2.33397 12.9697 3.44274 14.0382C3.9008 14.4992 3.9008 14.4992 4.36812 14.9696C5.01654 15.6172 5.67005 16.2598 6.32819 16.8975C7.3234 17.8649 8.29772 18.8501 9.27109 19.8394C14.9597 25.5148 14.9597 25.5148 19.0548 26.6066C20.858 27.196 21.9324 28.1523 22.8844 29.7741C23.4396 31.0404 23.4396 31.0404 23.8292 32.3531C24.2294 33.4786 24.5535 33.9834 25.4634 34.7279C26.8253 34.1831 28.1872 33.6384 29.549 33.0937C32.8378 36.3256 36.1199 39.5641 39.3936 42.8113C40.9141 44.319 42.4368 45.8244 43.9648 47.3245C45.4404 48.7734 46.9099 50.2283 48.3755 51.6875C48.9345 52.242 49.4956 52.7943 50.059 53.3444C50.8503 54.1178 51.6334 54.8987 52.4153 55.6816C52.6477 55.9052 52.8802 56.1289 53.1197 56.3593C54.6157 57.8788 55.294 59.2491 55.8505 61.3085C56.2091 62.424 56.7578 62.9033 57.7141 63.5568C58.0332 63.7812 58.3524 64.0056 58.6812 64.2367C59.0446 64.4758 59.408 64.7149 59.7824 64.9613C60.4412 65.4084 60.4412 65.4084 61.1134 65.8646C62.2979 66.6627 63.4884 67.4501 64.6851 68.2297Z" fill="#1565C0"/>
<path d="M42.6223 37.9961C44.3094 36.6228 45.8602 35.1734 47.3766 33.6168C51.9043 28.8527 51.9043 28.8527 57.885 26.743C62.3853 26.3091 65.7028 25.1403 68.8674 21.7575C70.449 19.734 71.63 17.7086 71.63 15.1168C69.1486 15.3437 67.2005 16.911 65.1545 18.2145C64.8556 18.3983 64.5567 18.5821 64.2488 18.7715C63.8446 19.0275 63.8446 19.0275 63.4323 19.2888C62.4328 19.696 62.0033 19.5856 61.0074 19.2024C58.0957 17.3438 56.966 14.5519 56.1781 11.269C56.5887 9.47631 56.9706 9.32909 58.4795 8.36439C59.316 7.88908 60.1591 7.42503 61.0074 6.97114C61.4361 6.73072 61.8648 6.4903 62.3065 6.2426C63.3666 5.64994 64.4312 5.06789 65.5016 4.49425C65.2319 3.82013 64.9623 3.14601 64.6845 2.45145C59.855 2.29047 54.9238 2.74617 51.1589 6.07103C49.2802 8.06984 48.3676 9.83689 48.3229 12.6415C48.2333 16.4378 47.1816 18.4707 44.6651 21.2452C44.4313 21.5042 44.1975 21.7633 43.9567 22.0302C41.2749 24.9784 38.5069 27.8364 35.6768 30.642C37.8303 33.2612 40.2082 35.6207 42.6223 37.9961Z" fill="#1565C0"/>
<path d="M9.1208 70.6814C18.8066 70.5618 18.8066 70.5618 22.7038 67.5119C25.1516 64.998 25.8557 62.0777 25.9483 58.6544C26.3757 53.0119 33.429 47.5106 37.3114 43.7165C36.7564 42.4731 36.1328 41.6234 35.1632 40.6715C34.9078 40.4187 34.6524 40.1659 34.3892 39.9054C34.1233 39.6463 33.8573 39.3872 33.5833 39.1202C33.3141 38.8548 33.045 38.5893 32.7677 38.3159C32.1051 37.6628 31.4407 37.0118 30.7744 36.3624C29.3213 37.0427 28.4553 37.8166 27.3527 38.9925C25.663 40.7226 23.8972 42.2554 21.9904 43.742C21.7406 43.9369 21.4907 44.1317 21.2333 44.3324C19.4977 45.6686 18.5498 46.1843 16.3703 46.3689C11.9058 46.7804 8.22223 47.8641 5.23949 51.4281C2.17529 55.6669 2.17529 55.6669 2.17529 58.4246C3.50473 58.1632 4.46402 57.6802 5.60974 56.9643C5.94733 56.7592 6.28492 56.5541 6.63274 56.3427C7.34028 55.9079 8.04569 55.4695 8.74894 55.0277C9.08653 54.8241 9.42412 54.6206 9.77194 54.4109C10.0782 54.2209 10.3844 54.0309 10.7 53.8352C11.5689 53.421 11.5689 53.421 12.4363 53.8143C15.1956 55.6947 16.5381 57.7575 17.1643 60.9781C17.3184 61.7523 17.3184 61.7523 17.4755 62.5421C17.5498 62.9361 17.624 63.33 17.7005 63.7359C17.4377 63.8275 17.1749 63.9192 16.9042 64.0136C15.2013 64.7506 13.6477 65.6951 12.0573 66.6469C11.7353 66.8381 11.4132 67.0292 11.0814 67.2262C10.2909 67.6957 9.50122 68.1665 8.71224 68.6386C8.84706 69.3127 8.98189 69.9868 9.1208 70.6814Z" fill="#1565C0"/>
</svg>
